<?xml version="1.0" standalone="no"?>
<!DOCTYPE svg PUBLIC "-//W3C//DTD SVG 20010904//EN"
 "http://www.w3.org/TR/2001/REC-SVG-20010904/DTD/svg10.dtd">
<svg version="1.0" xmlns="http://www.w3.org/2000/svg"
 width="800.000000pt" height="800.000000pt" viewBox="0 0 800.000000 800.000000"
 preserveAspectRatio="xMidYMid meet">
<metadata>
Created by potrace 1.14, written by Peter Selinger 2001-2017
</metadata>
<g transform="translate(0.000000,800.000000) scale(0.100000,-0.100000)"
fill="#000000" stroke="none">
<path d="M4833 6810 c-309 -85 -453 -358 -498 -944 -6 -81 -7 -299 -1 -351 29
-264 102 -433 249 -576 67 -65 113 -94 211 -133 79 -32 120 -33 166 -4 19 12
50 23 68 24 285 15 437 69 569 200 138 138 193 304 191 584 -1 143 -7 222 -29
350 -18 99 -13 78 -47 210 -35 135 -139 330 -228 424 -178 188 -438 275 -651
216z"/>
<path d="M2965 6655 c-190 -35 -358 -126 -490 -266 -157 -167 -230 -321 -280
-589 -11 -57 -14 -331 -5 -385 17 -102 21 -116 46 -187 29 -80 75 -157 120
-202 36 -36 125 -96 141 -96 7 0 29 -18 49 -40 63 -67 218 -104 444 -105 235
0 370 29 555 122 210 105 329 241 391 449 45 152 41 393 -11 593 -100 388
-337 636 -676 707 -56 11 -219 11 -284 -1z"/>
<path d="M6413 5069 c-51 -9 -118 -38 -168 -72 -46 -31 -141 -122 -175 -166
-14 -18 -29 -38 -35 -44 -22 -26 -65 -86 -65 -91 0 -3 -14 -28 -30 -55 -86
-140 -165 -383 -187 -576 -8 -73 -8 -253 0 -315 30 -235 122 -444 242 -554
105 -96 186 -137 267 -135 29 0 75 -4 103 -11 63 -14 183 -11 255 7 232 60
439 272 524 539 48 152 61 237 61 419 0 94 -4 188 -8 210 -4 22 -10 54 -13 70
-25 153 -101 350 -178 460 -97 140 -254 262 -387 301 -60 18 -148 23 -206 13z"/>
<path d="M1325 4820 c-146 -21 -236 -71 -335 -186 -65 -75 -133 -214 -173
-354 -34 -116 -38 -145 -42 -300 -6 -206 24 -348 106 -517 115 -234 286 -393
487 -453 116 -35 292 -22 352 26 8 6 40 14 70 18 254 27 469 226 527 489 24
106 24 493 0 612 -3 11 -7 38 -11 60 -4 22 -18 76 -32 120 -86 271 -272 426
-567 475 -87 14 -311 20 -382 10z"/>
<path d="M4437 4194 c-1 -1 -28 -5 -59 -8 -32 -4 -117 -25 -190 -47 -212 -63
-300 -66 -598 -19 -316 50 -482 20 -603 -108 -56 -60 -81 -101 -150 -238 -91
-181 -139 -289 -225 -504 -61 -153 -86 -200 -135 -256 -38 -43 -91 -69 -157
-77 -19 -3 -46 -10 -60 -16 -25 -12 -70 -68 -70 -88 0 -6 -19 -23 -42 -39 -41
-28 -148 -149 -148 -167 0 -5 -8 -21 -19 -35 -20 -29 -66 -156 -76 -212 -13
-76 -14 -256 0 -330 61 -331 269 -641 527 -783 167 -93 373 -119 553 -72 111
29 175 58 425 192 251 134 438 158 925 118 161 -14 298 -46 420 -100 209 -93
522 -76 755 39 213 107 335 224 423 406 126 263 118 629 -21 905 -45 90 -190
300 -232 335 -3 3 -50 56 -103 117 -102 118 -256 323 -302 401 -12 19 -66 102
-77 117 -5 6 -33 44 -64 85 -147 196 -323 324 -499 365 -53 13 -190 26 -198
19z"/>
</g>
</svg>
